<?xml version="1.0" encoding="UTF-8" standalone="no"?>
<svg width="80px" height="80px" viewBox="0 0 80 80" version="1.1" xmlns="http://www.w3.org/2000/svg" xmlns:xlink="http://www.w3.org/1999/xlink" xmlns:sketch="http://www.bohemiancoding.com/sketch/ns">
    <!-- Generator: Sketch 3.2.2 (9983) - http://www.bohemiancoding.com/sketch -->
    <title>google-plus-icon</title>
    <desc>Created with Sketch.</desc>
    <defs></defs>
    <g id="Web-App-Phone---I-WANT-MORE-Clean" stroke="none" stroke-width="1" fill="none" fill-rule="evenodd" sketch:type="MSPage">
        <g id="IWM/02.-Login" sketch:type="MSArtboardGroup" transform="translate(-48.000000, -407.000000)">
            <g id="Logins" sketch:type="MSLayerGroup" transform="translate(42.000000, 228.000000)">
                <g id="Login-with-Gmail" transform="translate(0.000000, 179.000000)" sketch:type="MSShapeGroup">
                    <g id="google-plus-icon" transform="translate(6.000000, 0.000000)">
                        <g id="Group">
                            <path d="M77.1748031,0.0703225806 L2.6103937,0.0703225806 C1.23905512,0.0703225806 0.128503937,1.20774194 0.128503937,2.61096774 L0.128503937,77.1567742 C0.128503937,78.5625806 1.23905512,79.7 2.6103937,79.7 L77.1748031,79.7 C78.5461417,79.7 79.6566929,78.5619355 79.6566929,77.1567742 L79.6566929,2.6116129 C79.6566929,1.20774194 78.5455118,0.0703225806 77.1748031,0.0703225806 L77.1748031,0.0703225806 Z" id="Shape" fill="#DC4A38"></path>
                            <g transform="translate(13.858268, 12.258065)" id="Shape" fill="#FFFFFF">
                                <path d="M28.0182677,31.5129032 L25.5092913,29.5174194 C24.7451969,28.8683871 23.7001575,28.0116129 23.7001575,26.4432258 C23.7001575,24.8683871 24.7451969,23.8670968 25.6522835,22.94 C28.5751181,20.583871 31.4954331,18.076129 31.4954331,12.7916129 C31.4954331,7.35741935 28.1568504,4.49870968 26.5568504,3.14258065 L30.8711811,3.14258065 L35.399685,0.228387097 L21.6806299,0.228387097 C17.9162205,0.228387097 12.4913386,1.14064516 8.51968504,4.49870968 C5.52629921,7.14387097 4.06614173,10.7909677 4.06614173,14.0741935 C4.06614173,19.6477419 8.24440945,25.2974194 15.6226772,25.2974194 C16.3193701,25.2974194 17.0815748,25.2270968 17.8488189,25.1541935 C17.504252,26.0129032 17.1559055,26.7277419 17.1559055,27.9412903 C17.1559055,30.1548387 18.2664567,31.5122581 19.2453543,32.7980645 C16.1102362,33.0187097 10.2576378,33.3741935 5.94330709,36.0903226 C1.83433071,38.5929032 0.583937008,42.2354839 0.583937008,44.8064516 C0.583937008,50.0980645 5.45385827,55.0270968 15.552126,55.0270968 C27.5269291,55.0270968 33.8664567,48.2406452 33.8664567,41.5225806 C33.8670866,36.5864516 31.0828346,34.1567742 28.0182677,31.5129032 L28.0182677,31.5129032 Z M18.8976378,23.2948387 C12.9070866,23.2948387 10.1933858,15.3632258 10.1933858,10.5774194 C10.1933858,8.71419355 10.5379528,6.79032258 11.7228346,5.28774194 C12.839685,3.85677419 14.7848819,2.9283871 16.6009449,2.9283871 C22.376063,2.9283871 25.3713386,10.9309677 25.3713386,16.0780645 C25.3713386,17.3658065 25.2327559,19.6477419 23.6314961,21.2974194 C22.5114961,22.4419355 20.6374803,23.2948387 18.8976378,23.2948387 L18.8976378,23.2948387 Z M18.9662992,52.0322581 C11.5168504,52.0322581 6.71307087,48.3825806 6.71307087,43.3077419 C6.71307087,38.2341935 11.1672441,36.5180645 12.6998425,35.9496774 C15.6226772,34.9425806 19.383937,34.8019355 20.0113386,34.8019355 C20.7074016,34.8019355 21.055748,34.8019355 21.6100787,34.8735484 C26.9058268,38.7335484 29.2044094,40.6574194 29.2044094,44.3116129 C29.2044094,48.7367742 25.6522835,52.0322581 18.9662992,52.0322581 L18.9662992,52.0322581 Z"></path>
                                <path d="M45.6018898,23.1858065 L45.6018898,16.0406452 L42.1562205,16.0406452 L42.1562205,23.1858065 L35.1911811,23.1858065 L35.1911811,26.7541935 L42.1562205,26.7541935 L42.1562205,33.9432258 L45.6018898,33.9432258 L45.6018898,26.7541935 L52.6022047,26.7541935 L52.6022047,23.1858065 L45.6018898,23.1858065 Z"></path>
                            </g>
                        </g>
                    </g>
                </g>
            </g>
        </g>
    </g>
</svg>